<svg id="Layer_1" data-name="Layer 1" xmlns="http://www.w3.org/2000/svg" width="2in" height="2in" viewBox="0 0 144 144"><title>bus</title><path d="M23.8189,127.6632v9.9619A4.3767,4.3767,0,0,0,28.1939,142H42.1458a4.3767,4.3767,0,0,0,4.375-4.375v-9.9619Z" fill="#454545"/><path d="M96.5531,127.6632v9.9619a4.3767,4.3767,0,0,0,4.375,4.375H114.88a4.3767,4.3767,0,0,0,4.375-4.375v-9.9619Z" fill="#454545"/><path d="M137.6081,38.2119a2.2685,2.2685,0,0,1-2.2705-2.2705,2.9138,2.9138,0,0,0-2.9095-2.9095h-2.4939a2.2705,2.2705,0,0,1,0-4.541h2.4939a7.4583,7.4583,0,0,1,7.4505,7.4463A2.272,2.272,0,0,1,137.6081,38.2119Z" fill="#cacaca"/><rect x="132.2882" y="35.5387" width="9.1089" height="24.5962" fill="#6f6f6f"/><path d="M5.4658,38.2119a2.2685,2.2685,0,0,0,2.2705-2.2705,2.9111,2.9111,0,0,1,2.9095-2.9095H13.14a2.2705,2.2705,0,0,0,0-4.541H10.6458a7.4583,7.4583,0,0,0-7.4505,7.4463A2.272,2.272,0,0,0,5.4658,38.2119Z" fill="#cacaca"/><rect x="1.6768" y="35.5387" width="9.1089" height="24.5962" fill="#6f6f6f"/><path d="M121.2895,2H21.7844a8.75,8.75,0,0,0-8.75,8.75V89.4475H130.0394V10.75A8.7475,8.7475,0,0,0,121.2895,2Z" fill="#86daf1"/><path d="M13.0345,118.1344v2.4062a8.7531,8.7531,0,0,0,8.75,8.75h99.5051a8.75,8.75,0,0,0,8.75-8.75v-2.4062Z" fill="#ed6262"/><rect x="13.0345" y="105.5563" width="117.0049" height="12.5606" fill="#cd484b"/><rect x="13.0345" y="86.6387" width="117.0049" height="18.9351" fill="#f3f3f3"/><rect x="13.0345" y="26.4955" width="117.0049" height="54.6744" fill="#6f6f6f"/><rect x="68.4133" y="26.4955" width="6.2476" height="54.6744" fill="#454545"/><rect x="13.0345" y="81.1699" width="117.0049" height="5.4688" fill="#86daf1"/><circle cx="25.6433" cy="111.8519" r="3.4213" fill="#f3f3f3"/><circle cx="34.3495" cy="111.8519" r="3.4213" fill="#ffe21f"/><circle cx="108.7243" cy="111.8519" r="3.4213" fill="#ffe21f"/><circle cx="117.4218" cy="111.8519" r="3.4213" fill="#f3f3f3"/><path d="M117.5008,91.3506h-8.387a4.7534,4.7534,0,1,0,0,9.5067h8.387a4.7534,4.7534,0,1,0,0-9.5067Z" fill="#ffbd49"/><path d="M33.2645,91.3506h-8.387a4.7534,4.7534,0,1,0,0,9.5067h8.387a4.7534,4.7534,0,0,0,0-9.5067Z" fill="#ffbd49"/><path d="M104.8787,5.8195H35.7318a8.4285,8.4285,0,0,0,0,16.8569h69.1469a8.4285,8.4285,0,0,0,0-16.8569Z" fill="#454545"/></svg>