<svg id="bus" xmlns="http://www.w3.org/2000/svg" width="700" height="455" viewBox="0 0 700 455"><title>bussvg</title><line x1="129.3195" y1="171.4821" x2="18.756" y2="11.297" fill="none" stroke="#3d3d3d" stroke-linecap="round" stroke-miterlimit="10" stroke-width="6"/><line x1="239.8831" y1="157.5529" x2="129.3195" y2="171.4821" fill="none" stroke="#3d3d3d" stroke-linecap="round" stroke-miterlimit="10" stroke-width="6"/><line x1="350.4466" y1="258.5391" x2="239.8831" y2="157.5529" fill="none" stroke="#3d3d3d" stroke-linecap="round" stroke-miterlimit="10" stroke-width="6"/><line x1="461.0101" y1="363.0076" x2="350.4466" y2="258.5391" fill="none" stroke="#3d3d3d" stroke-linecap="round" stroke-miterlimit="10" stroke-width="6"/><line x1="571.5737" y1="373.4545" x2="461.0101" y2="363.0076" fill="none" stroke="#3d3d3d" stroke-linecap="round" stroke-miterlimit="10" stroke-width="6"/><line x1="682.1372" y1="450.0647" x2="571.5737" y2="373.4545" fill="none" stroke="#3d3d3d" stroke-linecap="round" stroke-miterlimit="10" stroke-width="6"/><line x1="129.3195" y1="171.4821" x2="18.756" y2="11.297" fill="#bcbcbc"/><line x1="239.8831" y1="157.5529" x2="129.3195" y2="171.4821" fill="#bcbcbc"/><line x1="350.4466" y1="258.5391" x2="239.8831" y2="157.5529" fill="#bcbcbc"/><line x1="461.0101" y1="363.0076" x2="350.4466" y2="258.5391" fill="#bcbcbc"/><line x1="571.5737" y1="373.4545" x2="461.0101" y2="363.0076" fill="#bcbcbc"/><line x1="682.1372" y1="450.0647" x2="571.5737" y2="373.4545" fill="#bcbcbc"/><line x1="129.3195" y1="171.4821" x2="18.756" y2="11.297" fill="none" stroke="#919191" stroke-width="11"/><line x1="239.8831" y1="157.5529" x2="129.3195" y2="171.4821" fill="none" stroke="#919191" stroke-width="11"/><line x1="350.4466" y1="258.5391" x2="239.8831" y2="157.5529" fill="none" stroke="#919191" stroke-width="11"/><line x1="461.0101" y1="363.0076" x2="350.4466" y2="258.5391" fill="none" stroke="#919191" stroke-width="11"/><line x1="571.5737" y1="373.4545" x2="461.0101" y2="363.0076" fill="none" stroke="#919191" stroke-width="11"/><line x1="682.1372" y1="450.0647" x2="571.5737" y2="373.4545" fill="none" stroke="#919191" stroke-width="11"/><path d="M18.27,15.25c6.7562,0,6.7674-10.5,0-10.5-6.7562,0-6.7674,10.5,0,10.5Z" fill="#919191"/><path d="M18.7036,16.7323c6.7562,0,6.7674-10.5,0-10.5-6.7562,0-6.7674,10.5,0,10.5Z" fill="#919191"/><path d="M18.27,15.9912c6.7562,0,6.7674-10.5,0-10.5-6.7562,0-6.7674,10.5,0,10.5Z" fill="#919191"/><path d="M129.3,176.6379c6.7562,0,6.7674-10.5,0-10.5-6.7562,0-6.7674,10.5,0,10.5Z" fill="#919191"/><path d="M240.1136,163.1117c6.7562,0,6.7674-10.5,0-10.5-6.7562,0-6.7674,10.5,0,10.5Z" fill="#919191"/><path d="M240.33,162.3706c6.7562,0,6.7674-10.5,0-10.5-6.7562,0-6.7674,10.5,0,10.5Z" fill="#919191"/><path d="M460.6563,368.0429c6.7562,0,6.7674-10.5,0-10.5-6.7562,0-6.7674,10.5,0,10.5Z" fill="#919191"/><path d="M571.9034,378.0486c6.7562,0,6.7674-10.5,0-10.5-6.7562,0-6.7674,10.5,0,10.5Z" fill="#919191"/><path d="M682.5,455.5c6.7562,0,6.7674-10.5,0-10.5-6.7562,0-6.7674,10.5,0,10.5Z" fill="#919191"/><line x1="129.3195" y1="171.4821" x2="18.756" y2="11.297" fill="none" stroke="#3d3d3d" stroke-linecap="round" stroke-miterlimit="10" stroke-width="6"/><line x1="239.8831" y1="157.5529" x2="129.3195" y2="171.4821" fill="none" stroke="#3d3d3d" stroke-linecap="round" stroke-miterlimit="10" stroke-width="6"/><line x1="350.4466" y1="258.5391" x2="239.8831" y2="157.5529" fill="none" stroke="#3d3d3d" stroke-linecap="round" stroke-miterlimit="10" stroke-width="6"/><line x1="461.0101" y1="363.0076" x2="350.4466" y2="258.5391" fill="none" stroke="#3d3d3d" stroke-linecap="round" stroke-miterlimit="10" stroke-width="6"/><line x1="571.5737" y1="373.4545" x2="461.0101" y2="363.0076" fill="none" stroke="#3d3d3d" stroke-linecap="round" stroke-miterlimit="10" stroke-width="6"/><line x1="682.1372" y1="450.0647" x2="571.5737" y2="373.4545" fill="none" stroke="#3d3d3d" stroke-linecap="round" stroke-miterlimit="10" stroke-width="6"/><line x1="129.3195" y1="171.4821" x2="18.756" y2="11.297" fill="#609"/><line x1="239.8831" y1="157.5529" x2="129.3195" y2="171.4821" fill="#609"/><line x1="350.4466" y1="258.5391" x2="239.8831" y2="157.5529" fill="#609"/><line x1="461.0101" y1="363.0076" x2="350.4466" y2="258.5391" fill="#609"/><line x1="571.5737" y1="373.4545" x2="461.0101" y2="363.0076" fill="#609"/><line x1="682.1372" y1="450.0647" x2="571.5737" y2="373.4545" fill="#609"/><line x1="129.3195" y1="171.4821" x2="18.756" y2="11.297" fill="none" stroke="#609" stroke-width="7"/><line x1="239.8831" y1="157.5529" x2="129.3195" y2="171.4821" fill="none" stroke="#609" stroke-width="7"/><line x1="350.4466" y1="258.5391" x2="239.8831" y2="157.5529" fill="none" stroke="#609" stroke-width="7"/><line x1="461.0101" y1="363.0076" x2="350.4466" y2="258.5391" fill="none" stroke="#609" stroke-width="7"/><line x1="571.5737" y1="373.4545" x2="461.0101" y2="363.0076" fill="none" stroke="#609" stroke-width="7"/><line x1="682.1372" y1="450.0647" x2="571.5737" y2="373.4545" fill="none" stroke="#609" stroke-width="7"/><path d="M18.27,11.5a1.5009,1.5009,0,0,0,0-3,1.5009,1.5009,0,0,0,0,3Z" fill="#609"/><path d="M18.7036,14.4823c3.8607,0,3.8671-6,0-6-3.8607,0-3.8671,6,0,6Z" fill="#609"/><path d="M18.27,13.7412c3.8607,0,3.8671-6,0-6-3.8607,0-3.8671,6,0,6Z" fill="#609"/><path d="M129.3,174.3879c3.8607,0,3.8671-6,0-6-3.8607,0-3.8671,6,0,6Z" fill="#609"/><path d="M240.1136,160.8617c3.8607,0,3.8671-6,0-6-3.8607,0-3.8671,6,0,6Z" fill="#609"/><path d="M240.33,160.1206c3.8607,0,3.8671-6,0-6-3.8607,0-3.8671,6,0,6Z" fill="#609"/><path d="M460.6563,365.7929c3.8607,0,3.8671-6,0-6-3.8607,0-3.8671,6,0,6Z" fill="#609"/><path d="M571.9034,375.7986c3.8607,0,3.8671-6,0-6-3.8607,0-3.8671,6,0,6Z" fill="#609"/><path d="M682.5,453.25c3.8607,0,3.8671-6,0-6-3.8607,0-3.8671,6,0,6Z" fill="#609"/><path d="M111.0806,118.7848a3.68,3.68,0,0,0-4.5805-.9859,2.6355,2.6355,0,0,0-1.1539,3.9138,3.68,3.68,0,0,0,4.5805.9859A2.6355,2.6355,0,0,0,111.0806,118.7848Zm-3.6484,1.8628a.7181.7181,0,0,1,.3144-1.0664,1.003,1.003,0,0,1,1.2481.2686.7181.7181,0,0,1-.3144,1.0664A1.0029,1.0029,0,0,1,107.4322,120.6476Z" fill="#919191" stroke="#919191" stroke-width="2"/><path d="M128.8,144.1212a3.68,3.68,0,0,0-4.5805-.9859,2.6355,2.6355,0,0,0-1.1539,3.9138,3.68,3.68,0,0,0,4.5805.9859A2.6353,2.6353,0,0,0,128.8,144.1212Zm-3.6484,1.8628a.7181.7181,0,0,1,.3144-1.0664,1.003,1.003,0,0,1,1.2481.2686.7181.7181,0,0,1-.3144,1.0664A1.0028,1.0028,0,0,1,125.1513,145.984Z" fill="#919191" stroke="#919191" stroke-width="2"/><path d="M138.3584,153.59l9.7864-4.9967,10.6583-5.4419c3.3309-1.6786,2.4508-8.21,2.4508-8.21L137.9088,101.56s-9.8007-5.84-14.9291-3.1666l-17.1125,8.7373a4.4063,4.4063,0,0,0-3.4747.1616l-.1279.0653c-1.81.9461-1.3025,4.5168-1.3025,4.5168l2.5372,3.6279s-3.3928,5.2967-1.5434,7.9412a7.9612,7.9612,0,0,0,8.916,2.6008l10.3466,14.7945a5.6266,5.6266,0,0,0-1.5434,7.9412,7.9612,7.9612,0,0,0,8.916,2.6008l2.5372,3.6279a4.2984,4.2984,0,0,0,5.29,1.1841l.1279-.0653A3.4,3.4,0,0,0,138.3584,153.59Zm9.5211-7.28-1.6694-2.3871a.2439.2439,0,0,1,.1069-.3626l8.0907-4.1309a.3405.3405,0,0,1,.4243.0913l1.6694,2.3871Zm-44.3532-37.1774.0681-.0348a1.5668,1.5668,0,0,1,1.9461.4189l3.0785,4.4019a8.1881,8.1881,0,0,0-3.1215.3939l-2.461-3.5189A1.1173,1.1173,0,0,1,103.5263,109.1324Zm.5155,13.2463a3.8345,3.8345,0,0,1,1.679-5.6944,5.3548,5.3548,0,0,1,6.6644,1.4345,3.8344,3.8344,0,0,1-1.6788,5.6943A5.355,5.355,0,0,1,104.0418,122.3787Zm19.3772,17.5592L112.86,124.8392a5.5535,5.5535,0,0,0,1.5089-7.8315,6.6327,6.6327,0,0,0-2.09-1.904l-4.5493-6.5049,16.5133-8.4313c4.0131-2.049,9.21-.93,11.6086,2.4986l23.3451,33.3808a3.5059,3.5059,0,0,1-.6538,4.7319l-1.6248-2.3233a3.0148,3.0148,0,0,0-3.7567-.8086l-8.0907,4.1309a2.1593,2.1593,0,0,0-.9464,3.21l1.6694,2.3871-8.0656,4.1181-4.55-6.5053a5.5325,5.5325,0,0,0-.9724-2.4747A7.8586,7.8586,0,0,0,123.4191,139.9379Zm-1.6581,7.7771a3.8345,3.8345,0,0,1,1.679-5.6944,5.3548,5.3548,0,0,1,6.6644,1.4345,3.8344,3.8344,0,0,1-1.6788,5.6943A5.355,5.355,0,0,1,121.761,147.715Zm11.4817,6.27-2.461-3.5189a6.2263,6.2263,0,0,0,1.8848-2.1622l3.0793,4.4031a1.1173,1.1173,0,0,1-.49,1.6609l-.07.0355A1.56,1.56,0,0,1,133.2427,153.9846Z" fill="#919191" stroke="#919191" stroke-width="2"/><path d="M143.2422,139.1639l8.0908-4.131a2.1593,2.1593,0,0,0,.9464-3.21l-19.1878-27.4364a6.4511,6.4511,0,0,0-8.0387-1.73l-5.41,2.7624a2.1593,2.1593,0,0,0-.9464,3.21l20.79,29.7266A3.0146,3.0146,0,0,0,143.2422,139.1639ZM140.38,118.8565l4.9028,7.01-8.6219,4.4021-4.9028-7.01Zm-9.8683,2.62-4.9028-7.01,8.6219-4.4021,4.9028,7.01Zm-9.7062-14.3941,5.41-2.7624a3.7768,3.7768,0,0,1,4.7062,1.013l2.0622,2.9487-8.6219,4.4021-3.6638-5.2388A.2439.2439,0,0,1,120.8059,107.0823ZM141.5715,137.29l-3.6638-5.2388,8.6219-4.4021,3.6638,5.2388a.2439.2439,0,0,1-.1069.3626l-8.0907,4.1309A.3405.3405,0,0,1,141.5715,137.29Z" fill="#919191" stroke="#919191" stroke-width="2"/><path d="M139.729,149.02l.848-.4329a.9933.9933,0,0,0,.5295-1.3282,1.315,1.315,0,0,0-1.7363-.4744l-.9271.4734a.9552.9552,0,0,0-.3337,1.5313A1.3952,1.3952,0,0,0,139.729,149.02Z" fill="#919191" stroke="#919191" stroke-width="2"/><path d="M607.108,380.8785a3.7433,3.7433,0,0,0-4.6952.4422,2.5856,2.5856,0,0,0,.5175,4.0117,3.7434,3.7434,0,0,0,4.6952-.4422A2.5856,2.5856,0,0,0,607.108,380.8785Zm-2.658,2.8338a.7045.7045,0,0,1-.141-1.0931,1.02,1.02,0,0,1,1.2793-.12.7045.7045,0,0,1,.141,1.0931A1.02,1.02,0,0,1,604.45,383.7123Z" fill="#919191" stroke="#919191" stroke-width="2"/><path d="M634.0628,399.3368a3.7433,3.7433,0,0,0-4.6952.4422,2.5856,2.5856,0,0,0,.5175,4.0117,3.7434,3.7434,0,0,0,4.6952-.4422A2.5854,2.5854,0,0,0,634.0628,399.3368Zm-2.658,2.8338a.7045.7045,0,0,1-.141-1.0931,1.02,1.02,0,0,1,1.2793-.12.7045.7045,0,0,1,.141,1.0931A1.02,1.02,0,0,1,631.4048,402.1706Z" fill="#919191" stroke="#919191" stroke-width="2"/><path d="M646.8882,405.3592l7.13-7.6011,7.7649-8.2783c2.4357-2.5665-1.0572-8.4246-1.0572-8.4246l-35.5132-24.319s-11.57-2.55-15.2837,1.4849l-12.467,13.2913a4.144,4.144,0,0,0-3.19,1.1877l-.0932.0994c-1.3095,1.4263.6245,4.6211.6245,4.6211l3.86,2.6431s-1.0157,5.9754,1.7977,7.902a8.2679,8.2679,0,0,0,9.4177-.2218l15.74,10.7782a5.648,5.648,0,0,0,1.7977,7.902,8.2679,8.2679,0,0,0,9.4177-.2218l3.86,2.6431a4.3831,4.3831,0,0,0,5.4406-.4679l.0932-.0994A3.0384,3.0384,0,0,0,646.8882,405.3592Zm5.9484-9.6617-2.54-1.7391a.2393.2393,0,0,1-.0479-.3716l5.8943-6.284a.3463.3463,0,0,1,.435-.041l2.54,1.7391Zm-56.7509-21.6115.05-.0529a1.5936,1.5936,0,0,1,1.9948-.1879l4.6831,3.2069a7.503,7.503,0,0,0-2.7643,1.3l-3.7437-2.5637A1.0962,1.0962,0,0,1,596.0857,374.0861Zm5.8943,12.2594a3.7619,3.7619,0,0,1-.7528-5.837,5.4463,5.4463,0,0,1,6.8312-.6433,3.7618,3.7618,0,0,1,.7529,5.8369A5.4465,5.4465,0,0,1,601.98,386.3455Zm25.3316,10.6758-16.0631-11a5.5765,5.5765,0,0,0-1.7853-7.789,7.6918,7.6918,0,0,0-2.7361-1.161l-6.92-4.739,12.03-12.8259a9.4751,9.4751,0,0,1,11.8992-1.1206l35.5132,24.319a3.5708,3.5708,0,0,1,1.32,4.6293l-2.4717-1.6926a3.0663,3.0663,0,0,0-3.8508.3626l-5.8943,6.284a2.1184,2.1184,0,0,0,.4244,3.29l2.54,1.7391-5.8761,6.2646L638.52,398.843a6.407,6.407,0,0,0-1.9222-2.029A8.1639,8.1639,0,0,0,627.3116,397.0214Zm1.6232,7.7825a3.7619,3.7619,0,0,1-.7528-5.837,5.4463,5.4463,0,0,1,6.8312-.6433,3.7618,3.7618,0,0,1,.7529,5.8369A5.4465,5.4465,0,0,1,628.9348,404.8039Zm13.3208,2.451-3.7437-2.5637a5.4132,5.4132,0,0,0,.883-2.5883l4.6844,3.2078a1.0962,1.0962,0,0,1,.22,1.7025l-.0507.054A1.5866,1.5866,0,0,1,642.2556,407.2549Z" fill="#919191" stroke="#919191" stroke-width="2"/><path d="M645.5718,390.3841l5.8944-6.2841a2.1184,2.1184,0,0,0-.4244-3.29l-29.189-19.9883a6.5613,6.5613,0,0,0-8.24.776L609.6712,365.8a2.1184,2.1184,0,0,0,.4244,3.29l31.6255,21.6568A3.0661,3.0661,0,0,0,645.5718,390.3841Zm-10.9775-18.1767,7.4582,5.1073-6.2813,6.6966-7.4582-5.1073Zm-8.1775,5.3982-7.4582-5.1073,6.2813-6.6966,7.4582,5.1073Zm-14.9758-10.594,3.9416-4.2022a3.8413,3.8413,0,0,1,4.8241-.4543l3.137,2.1482L617.0624,371.2l-5.5734-3.8166A.2393.2393,0,0,1,611.441,367.0115Zm31.8,22.1149-5.5734-3.8166,6.2813-6.6966,5.5734,3.8166a.2393.2393,0,0,1,.0479.3716l-5.8943,6.284A.3463.3463,0,0,1,643.2407,389.1265Z" fill="#919191" stroke="#919191" stroke-width="2"/><path d="M646.3059,400.6681l.6178-.6586a.9516.9516,0,0,0-.0464-1.4025,1.3564,1.3564,0,0,0-1.8209.0733l-.6754.72a.9533.9533,0,0,0,.3128,1.5345A1.3912,1.3912,0,0,0,646.3059,400.6681Z" fill="#919191" stroke="#919191" stroke-width="2"/><path d="M111.0806,118.7848a3.68,3.68,0,0,0-4.5805-.9859,2.6355,2.6355,0,0,0-1.1539,3.9138,3.68,3.68,0,0,0,4.5805.9859A2.6355,2.6355,0,0,0,111.0806,118.7848Zm-3.6484,1.8628a.7181.7181,0,0,1,.3144-1.0664,1.003,1.003,0,0,1,1.2481.2686.7181.7181,0,0,1-.3144,1.0664A1.0029,1.0029,0,0,1,107.4322,120.6476Z" fill="#609"/><path d="M128.8,144.1212a3.68,3.68,0,0,0-4.5805-.9859,2.6355,2.6355,0,0,0-1.1539,3.9138,3.68,3.68,0,0,0,4.5805.9859A2.6353,2.6353,0,0,0,128.8,144.1212Zm-3.6484,1.8628a.7181.7181,0,0,1,.3144-1.0664,1.003,1.003,0,0,1,1.2481.2686.7181.7181,0,0,1-.3144,1.0664A1.0028,1.0028,0,0,1,125.1513,145.984Z" fill="#609"/><path d="M138.3584,153.59l9.7864-4.9967,10.6583-5.4419c3.3309-1.6786,2.4508-8.21,2.4508-8.21L137.9088,101.56s-9.8007-5.84-14.9291-3.1666l-17.1125,8.7373a4.4063,4.4063,0,0,0-3.4747.1616l-.1279.0653c-1.81.9461-1.3025,4.5168-1.3025,4.5168l2.5372,3.6279s-3.3928,5.2967-1.5434,7.9412a7.9612,7.9612,0,0,0,8.916,2.6008l10.3466,14.7945a5.6266,5.6266,0,0,0-1.5434,7.9412,7.9612,7.9612,0,0,0,8.916,2.6008l2.5372,3.6279a4.2984,4.2984,0,0,0,5.29,1.1841l.1279-.0653A3.4,3.4,0,0,0,138.3584,153.59Zm9.5211-7.28-1.6694-2.3871a.2439.2439,0,0,1,.1069-.3626l8.0907-4.1309a.3405.3405,0,0,1,.4243.0913l1.6694,2.3871Zm-44.3532-37.1774.0681-.0348a1.5668,1.5668,0,0,1,1.9461.4189l3.0785,4.4019a8.1881,8.1881,0,0,0-3.1215.3939l-2.461-3.5189A1.1173,1.1173,0,0,1,103.5263,109.1324Zm.5155,13.2463a3.8345,3.8345,0,0,1,1.679-5.6944,5.3548,5.3548,0,0,1,6.6644,1.4345,3.8344,3.8344,0,0,1-1.6788,5.6943A5.355,5.355,0,0,1,104.0418,122.3787Zm19.3772,17.5592L112.86,124.8392a5.5535,5.5535,0,0,0,1.5089-7.8315,6.6327,6.6327,0,0,0-2.09-1.904l-4.5493-6.5049,16.5133-8.4313c4.0131-2.049,9.21-.93,11.6086,2.4986l23.3451,33.3808a3.5059,3.5059,0,0,1-.6538,4.7319l-1.6248-2.3233a3.0148,3.0148,0,0,0-3.7567-.8086l-8.0907,4.1309a2.1593,2.1593,0,0,0-.9464,3.21l1.6694,2.3871-8.0656,4.1181-4.55-6.5053a5.5325,5.5325,0,0,0-.9724-2.4747A7.8586,7.8586,0,0,0,123.4191,139.9379Zm-1.6581,7.7771a3.8345,3.8345,0,0,1,1.679-5.6944,5.3548,5.3548,0,0,1,6.6644,1.4345,3.8344,3.8344,0,0,1-1.6788,5.6943A5.355,5.355,0,0,1,121.761,147.715Zm11.4817,6.27-2.461-3.5189a6.2263,6.2263,0,0,0,1.8848-2.1622l3.0793,4.4031a1.1173,1.1173,0,0,1-.49,1.6609l-.07.0355A1.56,1.56,0,0,1,133.2427,153.9846Z" fill="#609"/><path d="M143.2422,139.1639l8.0908-4.131a2.1593,2.1593,0,0,0,.9464-3.21l-19.1878-27.4364a6.4511,6.4511,0,0,0-8.0387-1.73l-5.41,2.7624a2.1593,2.1593,0,0,0-.9464,3.21l20.79,29.7266A3.0146,3.0146,0,0,0,143.2422,139.1639ZM140.38,118.8565l4.9028,7.01-8.6219,4.4021-4.9028-7.01Zm-9.8683,2.62-4.9028-7.01,8.6219-4.4021,4.9028,7.01Zm-9.7062-14.3941,5.41-2.7624a3.7768,3.7768,0,0,1,4.7062,1.013l2.0622,2.9487-8.6219,4.4021-3.6638-5.2388A.2439.2439,0,0,1,120.8059,107.0823ZM141.5715,137.29l-3.6638-5.2388,8.6219-4.4021,3.6638,5.2388a.2439.2439,0,0,1-.1069.3626l-8.0907,4.1309A.3405.3405,0,0,1,141.5715,137.29Z" fill="#609"/><path d="M139.729,149.02l.848-.4329a.9933.9933,0,0,0,.5295-1.3282,1.315,1.315,0,0,0-1.7363-.4744l-.9271.4734a.9552.9552,0,0,0-.3337,1.5313A1.3952,1.3952,0,0,0,139.729,149.02Z" fill="#609"/><path d="M607.108,380.8785a3.7433,3.7433,0,0,0-4.6952.4422,2.5856,2.5856,0,0,0,.5175,4.0117,3.7434,3.7434,0,0,0,4.6952-.4422A2.5856,2.5856,0,0,0,607.108,380.8785Zm-2.658,2.8338a.7045.7045,0,0,1-.141-1.0931,1.02,1.02,0,0,1,1.2793-.12.7045.7045,0,0,1,.141,1.0931A1.02,1.02,0,0,1,604.45,383.7123Z" fill="#609"/><path d="M634.0628,399.3368a3.7433,3.7433,0,0,0-4.6952.4422,2.5856,2.5856,0,0,0,.5175,4.0117,3.7434,3.7434,0,0,0,4.6952-.4422A2.5854,2.5854,0,0,0,634.0628,399.3368Zm-2.658,2.8338a.7045.7045,0,0,1-.141-1.0931,1.02,1.02,0,0,1,1.2793-.12.7045.7045,0,0,1,.141,1.0931A1.02,1.02,0,0,1,631.4048,402.1706Z" fill="#609"/><path d="M646.8882,405.3592l7.13-7.6011,7.7649-8.2783c2.4357-2.5665-1.0572-8.4246-1.0572-8.4246l-35.5132-24.319s-11.57-2.55-15.2837,1.4849l-12.467,13.2913a4.144,4.144,0,0,0-3.19,1.1877l-.0932.0994c-1.3095,1.4263.6245,4.6211.6245,4.6211l3.86,2.6431s-1.0157,5.9754,1.7977,7.902a8.2679,8.2679,0,0,0,9.4177-.2218l15.74,10.7782a5.648,5.648,0,0,0,1.7977,7.902,8.2679,8.2679,0,0,0,9.4177-.2218l3.86,2.6431a4.3831,4.3831,0,0,0,5.4406-.4679l.0932-.0994A3.0384,3.0384,0,0,0,646.8882,405.3592Zm5.9484-9.6617-2.54-1.7391a.2393.2393,0,0,1-.0479-.3716l5.8943-6.284a.3463.3463,0,0,1,.435-.041l2.54,1.7391Zm-56.7509-21.6115.05-.0529a1.5936,1.5936,0,0,1,1.9948-.1879l4.6831,3.2069a7.503,7.503,0,0,0-2.7643,1.3l-3.7437-2.5637A1.0962,1.0962,0,0,1,596.0857,374.0861Zm5.8943,12.2594a3.7619,3.7619,0,0,1-.7528-5.837,5.4463,5.4463,0,0,1,6.8312-.6433,3.7618,3.7618,0,0,1,.7529,5.8369A5.4465,5.4465,0,0,1,601.98,386.3455Zm25.3316,10.6758-16.0631-11a5.5765,5.5765,0,0,0-1.7853-7.789,7.6918,7.6918,0,0,0-2.7361-1.161l-6.92-4.739,12.03-12.8259a9.4751,9.4751,0,0,1,11.8992-1.1206l35.5132,24.319a3.5708,3.5708,0,0,1,1.32,4.6293l-2.4717-1.6926a3.0663,3.0663,0,0,0-3.8508.3626l-5.8943,6.284a2.1184,2.1184,0,0,0,.4244,3.29l2.54,1.7391-5.8761,6.2646L638.52,398.843a6.407,6.407,0,0,0-1.9222-2.029A8.1639,8.1639,0,0,0,627.3116,397.0214Zm1.6232,7.7825a3.7619,3.7619,0,0,1-.7528-5.837,5.4463,5.4463,0,0,1,6.8312-.6433,3.7618,3.7618,0,0,1,.7529,5.8369A5.4465,5.4465,0,0,1,628.9348,404.8039Zm13.3208,2.451-3.7437-2.5637a5.4132,5.4132,0,0,0,.883-2.5883l4.6844,3.2078a1.0962,1.0962,0,0,1,.22,1.7025l-.0507.054A1.5866,1.5866,0,0,1,642.2556,407.2549Z" fill="#609"/><path d="M645.5718,390.3841l5.8944-6.2841a2.1184,2.1184,0,0,0-.4244-3.29l-29.189-19.9883a6.5613,6.5613,0,0,0-8.24.776L609.6712,365.8a2.1184,2.1184,0,0,0,.4244,3.29l31.6255,21.6568A3.0661,3.0661,0,0,0,645.5718,390.3841Zm-10.9775-18.1767,7.4582,5.1073-6.2813,6.6966-7.4582-5.1073Zm-8.1775,5.3982-7.4582-5.1073,6.2813-6.6966,7.4582,5.1073Zm-14.9758-10.594,3.9416-4.2022a3.8413,3.8413,0,0,1,4.8241-.4543l3.137,2.1482L617.0624,371.2l-5.5734-3.8166A.2393.2393,0,0,1,611.441,367.0115Zm31.8,22.1149-5.5734-3.8166,6.2813-6.6966,5.5734,3.8166a.2393.2393,0,0,1,.0479.3716l-5.8943,6.284A.3463.3463,0,0,1,643.2407,389.1265Z" fill="#609"/><path d="M646.3059,400.6681l.6178-.6586a.9516.9516,0,0,0-.0464-1.4025,1.3564,1.3564,0,0,0-1.8209.0733l-.6754.72a.9533.9533,0,0,0,.3128,1.5345A1.3912,1.3912,0,0,0,646.3059,400.6681Z" fill="#609"/></svg>