<svg id="fare-chart" xmlns="http://www.w3.org/2000/svg" width="780" height="595" viewBox="0 0 780 595"><title>fare_chart</title><g id="chart-crap"><text transform="translate(23.9976 535.2324)" font-size="29.9531" fill="#fff" font-family="Jaldi-Regular, Jaldi">Jun. 2017</text><text transform="translate(30.7402 424.5654)" font-size="29.9531" fill="#fff" font-family="Jaldi-Regular, Jaldi">Jul. 2014</text><text transform="translate(30.7402 305.8989)" font-size="29.9531" fill="#fff" font-family="Jaldi-Regular, Jaldi">Jul. 2012</text><text transform="translate(23.9976 193.2324)" font-size="29.9531" fill="#fff" font-family="Jaldi-Regular, Jaldi">Jun. 2010</text><text transform="translate(21.5112 84.5659)" font-size="29.9531" fill="#fff" font-family="Jaldi-Regular, Jaldi">Feb. 2010</text></g><g id="one"><rect x="169" y="35" width="201" height="78" fill="#177217" stroke="#177217" stroke-miterlimit="10"/><path d="M168.5,52.5a18,18,0,0,0,18-18h-18Z" fill="#6ad36a" stroke="#6ad36a" stroke-miterlimit="10"/><path d="M168.5,95.5v18h18A18,18,0,0,0,168.5,95.5Z" fill="#6ad36a" stroke="#6ad36a" stroke-miterlimit="10"/><path d="M370.5,95.5a18,18,0,0,0-18,18h18Z" fill="#6ad36a" stroke="#6ad36a" stroke-miterlimit="10"/><path d="M352.5,34.5a18,18,0,0,0,18,18v-18Z" fill="#6ad36a" stroke="#6ad36a" stroke-miterlimit="10"/><line x1="168" y1="34.9996" x2="371.0012" y2="34.0001" fill="none" stroke="#6ad36a" stroke-miterlimit="10" stroke-width="2"/><line x1="168" y1="114" x2="371" y2="114" fill="none" stroke="#6ad36a" stroke-miterlimit="10" stroke-width="2"/><line x1="371" y1="33" x2="371" y2="115" fill="none" stroke="#6ad36a" stroke-miterlimit="10" stroke-width="2"/><line x1="168" y1="34" x2="168" y2="115" fill="none" stroke="#6ad36a" stroke-miterlimit="10" stroke-width="2"/><circle cx="269.5" cy="74.5" r="27" fill="#6ad36a" stroke="#6ad36a" stroke-miterlimit="10"/><circle cx="457.5" cy="74.5" r="19" fill="silver" stroke="#a5a5a5" stroke-miterlimit="10"/><text transform="translate(447.8701 81.0566)" font-size="20" fill="#515151" font-family="Jaldi-Regular, Jaldi">25</text><circle cx="495.25" cy="74.75" r="10.75" fill="silver" stroke="#a5a5a5" stroke-miterlimit="10"/><text transform="translate(489.8018 78.459)" font-size="11.3158" fill="#515151" font-family="Jaldi-Regular, Jaldi">10</text></g><g id="two"><rect x="169" y="145" width="201" height="78" fill="#177217" stroke="#177217" stroke-miterlimit="10"/><path d="M168.5,162.5a18,18,0,0,0,18-18h-18Z" fill="#6ad36a" stroke="#6ad36a" stroke-miterlimit="10"/><path d="M168.5,205.5v18h18A18,18,0,0,0,168.5,205.5Z" fill="#6ad36a" stroke="#6ad36a" stroke-miterlimit="10"/><path d="M370.5,205.5a18,18,0,0,0-18,18h18Z" fill="#6ad36a" stroke="#6ad36a" stroke-miterlimit="10"/><path d="M352.5,144.5a18,18,0,0,0,18,18v-18Z" fill="#6ad36a" stroke="#6ad36a" stroke-miterlimit="10"/><line x1="168" y1="144.9996" x2="371.0012" y2="144.0001" fill="none" stroke="#6ad36a" stroke-miterlimit="10" stroke-width="2"/><line x1="168" y1="224" x2="371" y2="224" fill="none" stroke="#6ad36a" stroke-miterlimit="10" stroke-width="2"/><line x1="371" y1="143" x2="371" y2="225" fill="none" stroke="#6ad36a" stroke-miterlimit="10" stroke-width="2"/><line x1="168" y1="144" x2="168" y2="225" fill="none" stroke="#6ad36a" stroke-miterlimit="10" stroke-width="2"/><circle cx="269.5" cy="184.5" r="27" fill="#6ad36a" stroke="#6ad36a" stroke-miterlimit="10"/><circle cx="456.5" cy="206.5" r="19" fill="silver" stroke="#a5a5a5" stroke-miterlimit="10"/><text transform="translate(446.8701 213.0566)" font-size="20" fill="#515151" font-family="Jaldi-Regular, Jaldi">25</text><circle cx="456.5" cy="163.5" r="19" fill="silver" stroke="#a5a5a5" stroke-miterlimit="10"/><text transform="translate(446.8701 170.0566)" font-size="20" fill="#515151" font-family="Jaldi-Regular, Jaldi">25</text></g><g id="three"><rect x="170" y="256" width="201" height="78" fill="#177217" stroke="#177217" stroke-miterlimit="10"/><path d="M169.5,273.5a18,18,0,0,0,18-18h-18Z" fill="#6ad36a" stroke="#6ad36a" stroke-miterlimit="10"/><path d="M169.5,316.5v18h18A18,18,0,0,0,169.5,316.5Z" fill="#6ad36a" stroke="#6ad36a" stroke-miterlimit="10"/><path d="M371.5,316.5a18,18,0,0,0-18,18h18Z" fill="#6ad36a" stroke="#6ad36a" stroke-miterlimit="10"/><path d="M353.5,255.5a18,18,0,0,0,18,18v-18Z" fill="#6ad36a" stroke="#6ad36a" stroke-miterlimit="10"/><line x1="169" y1="255.9996" x2="372.0012" y2="255.0001" fill="none" stroke="#6ad36a" stroke-miterlimit="10" stroke-width="2"/><line x1="169" y1="335" x2="372" y2="335" fill="none" stroke="#6ad36a" stroke-miterlimit="10" stroke-width="2"/><line x1="372" y1="254" x2="372" y2="336" fill="none" stroke="#6ad36a" stroke-miterlimit="10" stroke-width="2"/><line x1="169" y1="255" x2="169" y2="336" fill="none" stroke="#6ad36a" stroke-miterlimit="10" stroke-width="2"/><circle cx="270.5" cy="295.5" r="27" fill="#6ad36a" stroke="#6ad36a" stroke-miterlimit="10"/><circle cx="456.5" cy="316.5" r="19" fill="silver" stroke="#a5a5a5" stroke-miterlimit="10"/><text transform="translate(446.8701 323.0566)" font-size="20" fill="#515151" font-family="Jaldi-Regular, Jaldi">25</text><circle cx="456.5" cy="273.5" r="19" fill="silver" stroke="#a5a5a5" stroke-miterlimit="10"/><text transform="translate(446.8701 280.0566)" font-size="20" fill="#515151" font-family="Jaldi-Regular, Jaldi">25</text><circle cx="491.25" cy="294.75" r="10.75" fill="silver" stroke="#a5a5a5" stroke-miterlimit="10"/><text transform="translate(485.8018 298.459)" font-size="11.3158" fill="#515151" font-family="Jaldi-Regular, Jaldi">10</text></g><g id="four"><rect x="169" y="369" width="201" height="78" fill="#177217" stroke="#177217" stroke-miterlimit="10"/><path d="M168.5,386.5a18,18,0,0,0,18-18h-18Z" fill="#6ad36a" stroke="#6ad36a" stroke-miterlimit="10"/><path d="M168.5,429.5v18h18A18,18,0,0,0,168.5,429.5Z" fill="#6ad36a" stroke="#6ad36a" stroke-miterlimit="10"/><path d="M370.5,429.5a18,18,0,0,0-18,18h18Z" fill="#6ad36a" stroke="#6ad36a" stroke-miterlimit="10"/><path d="M352.5,368.5a18,18,0,0,0,18,18v-18Z" fill="#6ad36a" stroke="#6ad36a" stroke-miterlimit="10"/><line x1="168" y1="368.9996" x2="371.0012" y2="368.0001" fill="none" stroke="#6ad36a" stroke-miterlimit="10" stroke-width="2"/><line x1="168" y1="448" x2="371" y2="448" fill="none" stroke="#6ad36a" stroke-miterlimit="10" stroke-width="2"/><line x1="371" y1="367" x2="371" y2="449" fill="none" stroke="#6ad36a" stroke-miterlimit="10" stroke-width="2"/><line x1="168" y1="368" x2="168" y2="449" fill="none" stroke="#6ad36a" stroke-miterlimit="10" stroke-width="2"/><circle cx="269.5" cy="408.5" r="27" fill="#6ad36a" stroke="#6ad36a" stroke-miterlimit="10"/><circle cx="456.5" cy="385.5" r="19" fill="silver" stroke="#a5a5a5" stroke-miterlimit="10"/><text transform="translate(446.8701 392.0566)" font-size="20" fill="#515151" font-family="Jaldi-Regular, Jaldi">25</text><circle cx="501.5" cy="407.5" r="19" fill="silver" stroke="#a5a5a5" stroke-miterlimit="10"/><text transform="translate(491.8701 414.0566)" font-size="20" fill="#515151" font-family="Jaldi-Regular, Jaldi">25</text><circle cx="456.5" cy="430.5" r="19" fill="silver" stroke="#a5a5a5" stroke-miterlimit="10"/><text transform="translate(446.8701 437.0566)" font-size="20" fill="#515151" font-family="Jaldi-Regular, Jaldi">25</text></g><g id="five"><rect x="169" y="482" width="201" height="78" fill="#177217" stroke="#177217" stroke-miterlimit="10"/><path d="M168.5,499.5a18,18,0,0,0,18-18h-18Z" fill="#6ad36a" stroke="#6ad36a" stroke-miterlimit="10"/><path d="M168.5,542.5v18h18A18,18,0,0,0,168.5,542.5Z" fill="#6ad36a" stroke="#6ad36a" stroke-miterlimit="10"/><path d="M370.5,542.5a18,18,0,0,0-18,18h18Z" fill="#6ad36a" stroke="#6ad36a" stroke-miterlimit="10"/><path d="M352.5,481.5a18,18,0,0,0,18,18v-18Z" fill="#6ad36a" stroke="#6ad36a" stroke-miterlimit="10"/><line x1="168" y1="481.9996" x2="371.0012" y2="481.0001" fill="none" stroke="#6ad36a" stroke-miterlimit="10" stroke-width="2"/><line x1="168" y1="561" x2="371" y2="561" fill="none" stroke="#6ad36a" stroke-miterlimit="10" stroke-width="2"/><line x1="371" y1="480" x2="371" y2="562" fill="none" stroke="#6ad36a" stroke-miterlimit="10" stroke-width="2"/><line x1="168" y1="481" x2="168" y2="562" fill="none" stroke="#6ad36a" stroke-miterlimit="10" stroke-width="2"/><circle cx="269.5" cy="521.5" r="27" fill="#6ad36a" stroke="#6ad36a" stroke-miterlimit="10"/><rect x="420" y="482" width="201" height="78" fill="#177217" stroke="#177217" stroke-miterlimit="10"/><path d="M419.5,499.5a18,18,0,0,0,18-18h-18Z" fill="#6ad36a" stroke="#6ad36a" stroke-miterlimit="10"/><path d="M419.5,542.5v18h18A18,18,0,0,0,419.5,542.5Z" fill="#6ad36a" stroke="#6ad36a" stroke-miterlimit="10"/><path d="M621.5,542.5a18,18,0,0,0-18,18h18Z" fill="#6ad36a" stroke="#6ad36a" stroke-miterlimit="10"/><path d="M603.5,481.5a18,18,0,0,0,18,18v-18Z" fill="#6ad36a" stroke="#6ad36a" stroke-miterlimit="10"/><line x1="419" y1="481.9996" x2="622.0012" y2="481.0001" fill="none" stroke="#6ad36a" stroke-miterlimit="10" stroke-width="2"/><line x1="419" y1="561" x2="622" y2="561" fill="none" stroke="#6ad36a" stroke-miterlimit="10" stroke-width="2"/><line x1="622" y1="480" x2="622" y2="562" fill="none" stroke="#6ad36a" stroke-miterlimit="10" stroke-width="2"/><line x1="419" y1="481" x2="419" y2="562" fill="none" stroke="#6ad36a" stroke-miterlimit="10" stroke-width="2"/><circle cx="520.5" cy="521.5" r="27" fill="#6ad36a" stroke="#6ad36a" stroke-miterlimit="10"/></g><g id="percents"><path d="M554,182c32.6113,32.6113,33.0586,84.9414,1,117" fill="none" stroke="red" stroke-miterlimit="10" stroke-width="4"/><path d="M591,299c32.6113,32.6113,33.0586,84.9414,1,117" fill="none" stroke="red" stroke-miterlimit="10" stroke-width="4"/><path d="M643,409c32.6113,32.6113,33.0586,84.9414,1,117" fill="none" stroke="red" stroke-miterlimit="10" stroke-width="4"/><path d="M525,74c30.4,30.4,29.9531,80.0469-1,111" fill="none" stroke="red" stroke-miterlimit="10" stroke-width="4"/><text transform="translate(558.0068 134.936)" font-size="35" fill="red" font-family="Jaldi-Regular, Jaldi">11.1%</text><text transform="translate(598.1416 247.936)" font-size="35" fill="red" font-family="Jaldi-Regular, Jaldi">6.7%</text><text transform="translate(631.1416 367.936)" font-size="35" fill="red" font-family="Jaldi-Regular, Jaldi">9.4%</text><text transform="translate(679.0068 480.936)" font-size="35" fill="red" font-family="Jaldi-Regular, Jaldi">14.3%</text></g></svg>