<svg id="Layer_2" data-name="Layer 2" xmlns="http://www.w3.org/2000/svg" width="1200" height="600" viewBox="0 0 1200 600"><title>lines_drop</title><polyline points="147.254 1 298.499 219.011 448.382 199.935 750.872 480.624 900.755 494.25 1052 599.168" fill="none" stroke="#5a4666" stroke-width="3"/><polyline points="193.254 -10 344.499 208.011 494.382 188.935 796.872 469.624 946.755 483.25 1098 588.168" fill="none" stroke="#5a4666" stroke-width="3"/><polyline points="239.254 -21 390.499 197.011 540.382 177.935 842.872 458.624 992.755 472.25 1144 577.168" fill="none" stroke="#5a4666" stroke-width="3"/><polyline points="285.254 -32 436.499 186.011 586.382 166.935 888.872 447.624 1038.755 461.25 1190 566.168" fill="none" stroke="#5a4666" stroke-width="3"/><polyline points="331.254 -43 482.499 175.011 632.382 155.935 934.872 436.624 1084.755 450.25 1236 555.168" fill="none" stroke="#5a4666" stroke-width="3"/><polyline points="377.254 -54 528.499 164.011 678.382 144.935 980.872 425.624 1130.755 439.25 1282 544.168" fill="none" stroke="#5a4666" stroke-width="3"/><polyline points="423.254 -65 574.499 153.011 724.382 133.935 1026.872 414.624 1176.755 428.25 1328 533.168" fill="none" stroke="#5a4666" stroke-width="3"/><polyline points="469.254 -76 620.499 142.011 770.382 122.935 1072.872 403.624 1222.755 417.25 1374 522.168" fill="none" stroke="#5a4666" stroke-width="3"/><polyline points="515.254 -87 666.499 131.011 816.382 111.935 1118.872 392.624 1268.755 406.25 1420 511.168" fill="none" stroke="#5a4666" stroke-width="3"/><polyline points="561.254 -98 712.499 120.011 862.382 100.935 1164.872 381.624 1314.755 395.25 1466 500.168" fill="none" stroke="#5a4666" stroke-width="3"/><polyline points="607.254 -109 758.499 109.011 908.382 89.935 1210.872 370.624 1360.755 384.25 1512 489.168" fill="none" stroke="#5a4666" stroke-width="3"/><polyline points="653.254 -120 804.499 98.011 954.382 78.935 1256.872 359.624 1406.755 373.25 1558 478.168" fill="none" stroke="#5a4666" stroke-width="3"/><polyline points="699.254 -131 850.499 87.011 1000.382 67.935 1302.872 348.624 1452.755 362.25 1604 467.168" fill="none" stroke="#5a4666" stroke-width="3"/><polyline points="745.254 -142 896.499 76.011 1046.382 56.935 1348.872 337.624 1498.755 351.25 1650 456.168" fill="none" stroke="#5a4666" stroke-width="3"/><polyline points="791.254 -153 942.499 65.011 1092.382 45.935 1394.872 326.624 1544.755 340.25 1696 445.168" fill="none" stroke="#5a4666" stroke-width="3"/><polyline points="837.254 -164 988.499 54.011 1138.382 34.935 1440.872 315.624 1590.755 329.25 1742 434.168" fill="none" stroke="#5a4666" stroke-width="3"/><polyline points="883.254 -175 1034.499 43.011 1184.382 23.935 1486.872 304.624 1636.755 318.25 1788 423.168" fill="none" stroke="#5a4666" stroke-width="3"/><polyline points="929.254 -186 1080.499 32.011 1230.382 12.935 1532.872 293.624 1682.755 307.25 1834 412.168" fill="none" stroke="#5a4666" stroke-width="3"/><polyline points="975.254 -197 1126.499 21.011 1276.382 1.935 1578.872 282.624 1728.755 296.25 1880 401.168" fill="none" stroke="#5a4666" stroke-width="3"/><polyline points="147.254 1 298.499 219.011 448.382 199.935 750.872 480.624 900.755 494.25 1052 599.168" fill="none" stroke="#5a4666" stroke-width="3"/><polyline points="101.254 12 252.499 230.011 402.382 210.935 704.872 491.624 854.755 505.25 1006 610.168" fill="none" stroke="#5a4666" stroke-width="3"/><polyline points="55.254 23 206.499 241.011 356.382 221.935 658.872 502.624 808.755 516.25 960 621.168" fill="none" stroke="#5a4666" stroke-width="3"/><polyline points="9.254 34 160.499 252.011 310.382 232.935 612.872 513.624 762.755 527.25 914 632.168" fill="none" stroke="#5a4666" stroke-width="3"/><polyline points="-36.746 45 114.499 263.011 264.382 243.935 566.872 524.624 716.755 538.25 868 643.168" fill="none" stroke="#5a4666" stroke-width="3"/><polyline points="-82.746 56 68.499 274.011 218.382 254.935 520.872 535.624 670.755 549.25 822 654.168" fill="none" stroke="#5a4666" stroke-width="3"/><polyline points="-128.746 67 22.499 285.011 172.382 265.935 474.872 546.624 624.755 560.25 776 665.168" fill="none" stroke="#5a4666" stroke-width="3"/><polyline points="-174.746 78 -23.501 296.011 126.382 276.935 428.872 557.624 578.755 571.25 730 676.168" fill="none" stroke="#5a4666" stroke-width="3"/><polyline points="-220.746 89 -69.501 307.011 80.382 287.935 382.872 568.624 532.755 582.25 684 687.168" fill="none" stroke="#5a4666" stroke-width="3"/><polyline points="-266.746 100 -115.501 318.011 34.382 298.935 336.872 579.624 486.755 593.25 638 698.168" fill="none" stroke="#5a4666" stroke-width="3"/><polyline points="-312.746 111 -161.501 329.011 -11.618 309.935 290.872 590.624 440.755 604.25 592 709.168" fill="none" stroke="#5a4666" stroke-width="3"/><polyline points="-358.746 122 -207.501 340.011 -57.618 320.935 244.872 601.624 394.755 615.25 546 720.168" fill="none" stroke="#5a4666" stroke-width="3"/><polyline points="-404.746 133 -253.501 351.011 -103.618 331.935 198.872 612.624 348.755 626.25 500 731.168" fill="none" stroke="#5a4666" stroke-width="3"/><polyline points="-450.746 144 -299.501 362.011 -149.618 342.935 152.872 623.624 302.755 637.25 454 742.168" fill="none" stroke="#5a4666" stroke-width="3"/><polyline points="-496.746 155 -345.501 373.011 -195.618 353.935 106.872 634.624 256.755 648.25 408 753.168" fill="none" stroke="#5a4666" stroke-width="3"/><polyline points="-542.746 166 -391.501 384.011 -241.618 364.935 60.872 645.624 210.755 659.25 362 764.168" fill="none" stroke="#5a4666" stroke-width="3"/></svg>