<svg xmlns="http://www.w3.org/2000/svg" width="780" height="595" viewBox="0 0 780 595"><g id="chart-crap"><text transform="translate(23.9976 536.8516) scale(1.0644 1)" font-size="28.1412" fill="#fff" font-family="Jaldi-Regular, Jaldi">Jun. 2017</text><text transform="translate(30.7402 432.8789) scale(1.0644 1)" font-size="28.1412" fill="#fff" font-family="Jaldi-Regular, Jaldi">Jul. 2014</text><text transform="translate(30.7402 321.3906) scale(1.0644 1)" font-size="28.1412" fill="#fff" font-family="Jaldi-Regular, Jaldi">Jul. 2012</text><text transform="translate(23.9976 215.54) scale(1.0644 1)" font-size="28.1412" fill="#fff" font-family="Jaldi-Regular, Jaldi">Jun. 2010</text><text transform="translate(21.5112 113.4468) scale(1.0644 1)" font-size="28.1412" fill="#fff" font-family="Jaldi-Regular, Jaldi">Feb. 2010</text><text transform="translate(137.5723 37.8711)" font-size="28" fill="#fff" font-family="Jaldi-Regular, Jaldi">Timeline of Bus Fare Cost and Percent Changes</text></g><g id="one"><rect x="169.5" y="67.5" width="201" height="73" fill="#177217" stroke="#177217" stroke-miterlimit="10"/><path d="M168.5,83.4112c9.9411,0,18-7.5714,18-16.9112h-18Z" fill="#6ad36a" stroke="#6ad36a" stroke-miterlimit="10"/><path d="M168.5,123.5888V140.5h18C186.5,131.16,178.4411,123.5888,168.5,123.5888Z" fill="#6ad36a" stroke="#6ad36a" stroke-miterlimit="10"/><path d="M370.5,123.5888c-9.9411,0-18,7.5713-18,16.9112h18Z" fill="#6ad36a" stroke="#6ad36a" stroke-miterlimit="10"/><path d="M352.5,66.5c0,9.34,8.0589,16.9112,18,16.9112V66.5Z" fill="#6ad36a" stroke="#6ad36a" stroke-miterlimit="10"/><line x1="168" y1="67" x2="371" y2="66.0609" fill="none" stroke="#6ad36a" stroke-miterlimit="10" stroke-width="2"/><line x1="168" y1="141" x2="371" y2="141" fill="none" stroke="#6ad36a" stroke-miterlimit="10" stroke-width="2"/><line x1="371" y1="65" x2="371" y2="142" fill="none" stroke="#6ad36a" stroke-miterlimit="10" stroke-width="2"/><line x1="168" y1="66" x2="168" y2="142" fill="none" stroke="#6ad36a" stroke-miterlimit="10" stroke-width="2"/><ellipse cx="269.5" cy="104" rx="27" ry="25.5" fill="#6ad36a" stroke="#6ad36a" stroke-miterlimit="10"/><ellipse cx="457.5" cy="103.5" rx="19" ry="18" fill="silver" stroke="#a5a5a5" stroke-miterlimit="10"/><text transform="translate(447.8701 110.1494) scale(1.0644 1)" font-size="18.7902" fill="#515151" font-family="Jaldi-Regular, Jaldi">25</text><ellipse cx="495.5" cy="104.5" rx="11" ry="10" fill="silver" stroke="#a5a5a5" stroke-miterlimit="10"/><text transform="translate(489.8018 107.71) scale(1.0644 1)" font-size="10.6313" fill="#515151" font-family="Jaldi-Regular, Jaldi">10</text></g><g id="two"><rect x="169.5" y="170.5" width="201" height="73" fill="#177217" stroke="#177217" stroke-miterlimit="10"/><path d="M168.5,186.4112c9.9411,0,18-7.5714,18-16.9112h-18Z" fill="#6ad36a" stroke="#6ad36a" stroke-miterlimit="10"/><path d="M168.5,226.5888V243.5h18C186.5,234.16,178.4411,226.5888,168.5,226.5888Z" fill="#6ad36a" stroke="#6ad36a" stroke-miterlimit="10"/><path d="M370.5,226.5888c-9.9411,0-18,7.5713-18,16.9112h18Z" fill="#6ad36a" stroke="#6ad36a" stroke-miterlimit="10"/><path d="M352.5,169.5c0,9.34,8.0589,16.9112,18,16.9112V169.5Z" fill="#6ad36a" stroke="#6ad36a" stroke-miterlimit="10"/><line x1="168" y1="170" x2="371" y2="169.0609" fill="none" stroke="#6ad36a" stroke-miterlimit="10" stroke-width="2"/><line x1="168" y1="244" x2="371" y2="244" fill="none" stroke="#6ad36a" stroke-miterlimit="10" stroke-width="2"/><line x1="371" y1="168" x2="371" y2="245" fill="none" stroke="#6ad36a" stroke-miterlimit="10" stroke-width="2"/><line x1="168" y1="169" x2="168" y2="245" fill="none" stroke="#6ad36a" stroke-miterlimit="10" stroke-width="2"/><ellipse cx="269.5" cy="207" rx="27" ry="25.5" fill="#6ad36a" stroke="#6ad36a" stroke-miterlimit="10"/><ellipse cx="456.5" cy="228.5" rx="19" ry="18" fill="silver" stroke="#a5a5a5" stroke-miterlimit="10"/><text transform="translate(446.8701 234.1646) scale(1.0644 1)" font-size="18.7902" fill="#515151" font-family="Jaldi-Regular, Jaldi">25</text><ellipse cx="456.5" cy="187.5" rx="19" ry="18" fill="silver" stroke="#a5a5a5" stroke-miterlimit="10"/><text transform="translate(446.8701 193.7656) scale(1.0644 1)" font-size="18.7902" fill="#515151" font-family="Jaldi-Regular, Jaldi">25</text></g><g id="three"><rect x="170.5" y="274.5" width="201" height="73" fill="#177217" stroke="#177217" stroke-miterlimit="10"/><path d="M169.5,291.4112c9.9411,0,18-7.5714,18-16.9112h-18Z" fill="#6ad36a" stroke="#6ad36a" stroke-miterlimit="10"/><path d="M169.5,331.5888V348.5h18C187.5,339.16,179.4411,331.5888,169.5,331.5888Z" fill="#6ad36a" stroke="#6ad36a" stroke-miterlimit="10"/><path d="M371.5,331.5888c-9.9411,0-18,7.5713-18,16.9112h18Z" fill="#6ad36a" stroke="#6ad36a" stroke-miterlimit="10"/><path d="M353.5,274.5c0,9.34,8.0589,16.9112,18,16.9112V274.5Z" fill="#6ad36a" stroke="#6ad36a" stroke-miterlimit="10"/><line x1="169" y1="275" x2="372" y2="274.0609" fill="none" stroke="#6ad36a" stroke-miterlimit="10" stroke-width="2"/><line x1="169" y1="349" x2="372" y2="349" fill="none" stroke="#6ad36a" stroke-miterlimit="10" stroke-width="2"/><line x1="372" y1="273" x2="372" y2="350" fill="none" stroke="#6ad36a" stroke-miterlimit="10" stroke-width="2"/><line x1="169" y1="274" x2="169" y2="350" fill="none" stroke="#6ad36a" stroke-miterlimit="10" stroke-width="2"/><ellipse cx="270.5" cy="312" rx="27" ry="25.5" fill="#6ad36a" stroke="#6ad36a" stroke-miterlimit="10"/><ellipse cx="456.5" cy="331.5" rx="19" ry="18" fill="silver" stroke="#a5a5a5" stroke-miterlimit="10"/><text transform="translate(446.8701 337.5107) scale(1.0644 1)" font-size="18.7902" fill="#515151" font-family="Jaldi-Regular, Jaldi">25</text><ellipse cx="456.5" cy="290.5" rx="19" ry="18" fill="silver" stroke="#a5a5a5" stroke-miterlimit="10"/><text transform="translate(446.8701 297.1118) scale(1.0644 1)" font-size="18.7902" fill="#515151" font-family="Jaldi-Regular, Jaldi">25</text><ellipse cx="491.5" cy="310.5" rx="11" ry="10" fill="silver" stroke="#a5a5a5" stroke-miterlimit="10"/><text transform="translate(485.8018 314.4014) scale(1.0644 1)" font-size="10.6313" fill="#515151" font-family="Jaldi-Regular, Jaldi">10</text></g><g id="four"><rect x="169.5" y="380.5" width="201" height="73" fill="#177217" stroke="#177217" stroke-miterlimit="10"/><path d="M168.5,397.4112c9.9411,0,18-7.5714,18-16.9112h-18Z" fill="#6ad36a" stroke="#6ad36a" stroke-miterlimit="10"/><path d="M168.5,437.5888V454.5h18C186.5,445.16,178.4411,437.5888,168.5,437.5888Z" fill="#6ad36a" stroke="#6ad36a" stroke-miterlimit="10"/><path d="M370.5,437.5888c-9.9411,0-18,7.5713-18,16.9112h18Z" fill="#6ad36a" stroke="#6ad36a" stroke-miterlimit="10"/><path d="M352.5,380.5c0,9.34,8.0589,16.9112,18,16.9112V380.5Z" fill="#6ad36a" stroke="#6ad36a" stroke-miterlimit="10"/><line x1="168" y1="381" x2="371" y2="380.0609" fill="none" stroke="#6ad36a" stroke-miterlimit="10" stroke-width="2"/><line x1="168" y1="455" x2="371" y2="455" fill="none" stroke="#6ad36a" stroke-miterlimit="10" stroke-width="2"/><line x1="371" y1="379" x2="371" y2="456" fill="none" stroke="#6ad36a" stroke-miterlimit="10" stroke-width="2"/><line x1="168" y1="380" x2="168" y2="456" fill="none" stroke="#6ad36a" stroke-miterlimit="10" stroke-width="2"/><ellipse cx="269.5" cy="418" rx="27" ry="25.5" fill="#6ad36a" stroke="#6ad36a" stroke-miterlimit="10"/><ellipse cx="456.5" cy="396.5" rx="19" ry="18" fill="silver" stroke="#a5a5a5" stroke-miterlimit="10"/><text transform="translate(446.8701 402.3359) scale(1.0644 1)" font-size="18.7902" fill="#515151" font-family="Jaldi-Regular, Jaldi">25</text><ellipse cx="501.5" cy="416.5" rx="19" ry="18" fill="silver" stroke="#a5a5a5" stroke-miterlimit="10"/><text transform="translate(491.8701 423.0049) scale(1.0644 1)" font-size="18.7902" fill="#515151" font-family="Jaldi-Regular, Jaldi">25</text><ellipse cx="456.5" cy="438.5" rx="19" ry="18" fill="silver" stroke="#a5a5a5" stroke-miterlimit="10"/><text transform="translate(446.8701 444.6143) scale(1.0644 1)" font-size="18.7902" fill="#515151" font-family="Jaldi-Regular, Jaldi">25</text></g><g id="five"><rect x="169.5" y="486.5" width="201" height="73" fill="#177217" stroke="#177217" stroke-miterlimit="10"/><path d="M168.5,503.4112c9.9411,0,18-7.5714,18-16.9112h-18Z" fill="#6ad36a" stroke="#6ad36a" stroke-miterlimit="10"/><path d="M168.5,543.5888V560.5h18C186.5,551.16,178.4411,543.5888,168.5,543.5888Z" fill="#6ad36a" stroke="#6ad36a" stroke-miterlimit="10"/><path d="M370.5,543.5888c-9.9411,0-18,7.5713-18,16.9112h18Z" fill="#6ad36a" stroke="#6ad36a" stroke-miterlimit="10"/><path d="M352.5,486.5c0,9.34,8.0589,16.9112,18,16.9112V486.5Z" fill="#6ad36a" stroke="#6ad36a" stroke-miterlimit="10"/><line x1="168" y1="487" x2="371" y2="486.0609" fill="none" stroke="#6ad36a" stroke-miterlimit="10" stroke-width="2"/><line x1="168" y1="561" x2="371" y2="561" fill="none" stroke="#6ad36a" stroke-miterlimit="10" stroke-width="2"/><line x1="371" y1="485" x2="371" y2="562" fill="none" stroke="#6ad36a" stroke-miterlimit="10" stroke-width="2"/><line x1="168" y1="486" x2="168" y2="562" fill="none" stroke="#6ad36a" stroke-miterlimit="10" stroke-width="2"/><ellipse cx="269.5" cy="524" rx="27" ry="25.5" fill="#6ad36a" stroke="#6ad36a" stroke-miterlimit="10"/><rect x="420.5" y="486.5" width="201" height="73" fill="#177217" stroke="#177217" stroke-miterlimit="10"/><path d="M419.5,503.4112c9.9411,0,18-7.5714,18-16.9112h-18Z" fill="#6ad36a" stroke="#6ad36a" stroke-miterlimit="10"/><path d="M419.5,543.5888V560.5h18C437.5,551.16,429.4411,543.5888,419.5,543.5888Z" fill="#6ad36a" stroke="#6ad36a" stroke-miterlimit="10"/><path d="M621.5,543.5888c-9.9411,0-18,7.5713-18,16.9112h18Z" fill="#6ad36a" stroke="#6ad36a" stroke-miterlimit="10"/><path d="M603.5,486.5c0,9.34,8.0589,16.9112,18,16.9112V486.5Z" fill="#6ad36a" stroke="#6ad36a" stroke-miterlimit="10"/><line x1="419" y1="487" x2="622" y2="486.0609" fill="none" stroke="#6ad36a" stroke-miterlimit="10" stroke-width="2"/><line x1="419" y1="561" x2="622" y2="561" fill="none" stroke="#6ad36a" stroke-miterlimit="10" stroke-width="2"/><line x1="622" y1="485" x2="622" y2="562" fill="none" stroke="#6ad36a" stroke-miterlimit="10" stroke-width="2"/><line x1="419" y1="486" x2="419" y2="562" fill="none" stroke="#6ad36a" stroke-miterlimit="10" stroke-width="2"/><ellipse cx="520.5" cy="524" rx="27" ry="25.5" fill="#6ad36a" stroke="#6ad36a" stroke-miterlimit="10"/></g><g id="percents"><path d="M554,204.9868c32.6113,30.6386,33.0586,79.8032,1,109.9225" fill="none" stroke="red" stroke-miterlimit="10" stroke-width="4"/><path d="M591,314.9093c32.6113,30.6386,33.0586,79.8032,1,109.9225" fill="none" stroke="red" stroke-miterlimit="10" stroke-width="4"/><path d="M643,418.2552c32.6113,30.6386,33.0586,79.8032,1,109.9225" fill="none" stroke="red" stroke-miterlimit="10" stroke-width="4"/><path d="M525,103.52c30.4,28.5614,29.9531,75.2047-1,104.2854" fill="none" stroke="red" stroke-miterlimit="10" stroke-width="4"/><text transform="translate(558.0068 160.7695) scale(1.0644 1)" font-size="32.8828" fill="red" font-family="Jaldi-Regular, Jaldi">11.1%</text><text transform="translate(598.1416 266.9336) scale(1.0644 1)" font-size="32.8828" fill="red" font-family="Jaldi-Regular, Jaldi">6.7%</text><text transform="translate(631.1416 379.6758) scale(1.0644 1)" font-size="32.8828" fill="red" font-family="Jaldi-Regular, Jaldi">9.4%</text><text transform="translate(679.0068 485.8398) scale(1.0644 1)" font-size="32.8828" fill="red" font-family="Jaldi-Regular, Jaldi">14.3%</text></g></svg>